<svg width="18" height="22" viewBox="0 0 18 22" fill="none" xmlns="http://www.w3.org/2000/svg">
<path d="M6.21331 21.8925C3.04591 21.8743 0.425903 15.4086 0.425903 12.1157C0.425903 6.73688 4.46095 5.55931 6.01603 5.55931C6.71684 5.55931 7.46516 5.83452 8.12519 6.07806C8.58674 6.24794 9.06409 6.42331 9.32957 6.42331C9.48848 6.42331 9.86295 6.27413 10.1936 6.14324C10.8987 5.86254 11.776 5.51367 12.7977 5.51367C12.7996 5.51367 12.802 5.51367 12.8038 5.51367C13.5667 5.51367 15.8799 5.6811 17.2706 7.76956L17.5963 8.25908L17.1275 8.61286C16.4577 9.11822 15.2357 10.0401 15.2357 11.8661C15.2357 14.0289 16.6197 14.8606 17.2846 15.2606C17.5781 15.4372 17.8819 15.6193 17.8819 16.0175C17.8819 16.2775 15.8068 21.8603 12.7935 21.8603C12.0561 21.8603 11.5349 21.6387 11.0752 21.4432C10.61 21.2453 10.2087 21.0748 9.54568 21.0748C9.20957 21.0748 8.78456 21.2338 8.3346 21.4024C7.71971 21.6319 7.02372 21.8925 6.23401 21.8925H6.21331Z" fill="white"/>
<path d="M13.1171 0.612793C13.1956 3.44246 11.1719 5.40555 9.15064 5.28243C8.81757 3.02426 11.1717 0.612793 13.1171 0.612793Z" fill="white"/>
</svg>
