<svg width="23" height="18" viewBox="0 0 23 18" fill="none" xmlns="http://www.w3.org/2000/svg">
<path d="M22.2447 2.33026C21.4514 2.67742 20.606 2.90753 19.7247 3.01926C20.6314 2.47923 21.3234 1.63062 21.6487 0.607753C20.8034 1.11054 19.87 1.46568 18.8754 1.66387C18.0727 0.811262 16.9287 0.283203 15.6807 0.283203C13.2594 0.283203 11.31 2.2438 11.31 4.64733C11.31 4.99316 11.3394 5.32569 11.4114 5.64226C7.77538 5.46536 4.55804 3.72689 2.39671 1.07862C2.01938 1.73171 1.79804 2.47923 1.79804 3.28396C1.79804 4.79498 2.57804 6.13441 3.74071 6.90987C3.03804 6.89657 2.34871 6.69306 1.76471 6.3725C1.76471 6.3858 1.76471 6.40309 1.76471 6.42038C1.76471 8.5406 3.28071 10.3017 5.26871 10.7074C4.91271 10.8045 4.52471 10.851 4.12204 10.851C3.84204 10.851 3.55938 10.8351 3.29404 10.7765C3.86071 12.5044 5.46871 13.7746 7.38071 13.8159C5.89271 14.9771 4.00338 15.6767 1.95804 15.6767C1.59938 15.6767 1.25538 15.6607 0.911377 15.6168C2.84871 16.8632 5.14471 17.5748 7.62071 17.5748C15.6687 17.5748 20.0687 10.9242 20.0687 5.15943C20.0687 4.96656 20.062 4.78034 20.0527 4.59546C20.9207 3.98094 21.65 3.21346 22.2447 2.33026Z" fill="#080809"/>
</svg>
